<svg preserveAspectRatio="none" width="100%" height="100%" overflow="visible" style="display: block;" viewBox="0 0 10.3747 7.94619" fill="none" xmlns="http://www.w3.org/2000/svg">
<g id="Group">
<path id="Vector" d="M7.06995 0.574377L7.77495 1.98438C7.86995 2.17938 8.12495 2.36438 8.33995 2.40438L9.61495 2.61438C10.4299 2.74938 10.6199 3.33938 10.0349 3.92938L9.03995 4.92438C8.87495 5.08938 8.77995 5.41438 8.83495 5.64938L9.11995 6.87938C9.34495 7.84938 8.82495 8.22938 7.96995 7.71938L6.77495 7.00938C6.55995 6.87938 6.19995 6.87938 5.98495 7.00938L4.78995 7.71938C3.93497 8.22438 3.41497 7.84938 3.63997 6.87938L3.92497 5.64938C3.96997 5.40938 3.87497 5.08438 3.70997 4.91938L2.71497 3.92438C2.12997 3.33938 2.31997 2.74938 3.13497 2.60938L4.40995 2.39938C4.62495 2.36438 4.87995 2.17438 4.97495 1.97938L5.67995 0.569376C6.06495 -0.190624 6.68495 -0.190623 7.06995 0.574377Z" fill="var(--fill-0, #F7931E)"/>
<path id="Vector_2" d="M3.375 0.844727H0.375C0.17 0.844727 0 0.674727 0 0.469727C0 0.264727 0.17 0.0947266 0.375 0.0947266H3.375C3.58 0.0947266 3.75 0.264727 3.75 0.469727C3.75 0.674727 3.58 0.844727 3.375 0.844727Z" fill="var(--fill-0, #F7931E)"/>
<path id="Vector_3" d="M1.875 7.84473H0.375C0.17 7.84473 0 7.67473 0 7.46973C0 7.26473 0.17 7.09473 0.375 7.09473H1.875C2.08 7.09473 2.25 7.26473 2.25 7.46973C2.25 7.67473 2.08 7.84473 1.875 7.84473Z" fill="var(--fill-0, #F7931E)"/>
<path id="Vector_4" d="M0.875 4.34473H0.375C0.17 4.34473 0 4.17473 0 3.96973C0 3.76473 0.17 3.59473 0.375 3.59473H0.875C1.08 3.59473 1.25 3.76473 1.25 3.96973C1.25 4.17473 1.08 4.34473 0.875 4.34473Z" fill="var(--fill-0, #F7931E)"/>
</g>
</svg>
