<svg preserveAspectRatio="none" width="100%" height="100%" overflow="visible" style="display: block;" viewBox="0 0 10.7711 9.63427" fill="none" xmlns="http://www.w3.org/2000/svg">
<g id="Group">
<path id="Vector" d="M4.28497 5.45714H5.82995V9.05714C5.82995 9.58714 6.48995 9.83714 6.83995 9.43714L10.625 5.13714C10.955 4.76214 10.6899 4.17714 10.1899 4.17714H8.64495V0.577123C8.64495 0.0471234 7.98495 -0.202877 7.63495 0.197123L3.84997 4.49714C3.52497 4.87214 3.78997 5.45714 4.28497 5.45714Z" fill="var(--fill-0, #F7931E)"/>
<path id="Vector_2" d="M3.875 1.19189H0.375C0.17 1.19189 0 1.02189 0 0.816893C0 0.611893 0.17 0.441893 0.375 0.441893H3.875C4.08 0.441893 4.25 0.611893 4.25 0.816893C4.25 1.02189 4.08 1.19189 3.875 1.19189Z" fill="var(--fill-0, #F7931E)"/>
<path id="Vector_3" d="M3.375 9.19189H0.375C0.17 9.19189 0 9.02189 0 8.81689C0 8.61189 0.17 8.44189 0.375 8.44189H3.375C3.58 8.44189 3.75 8.61189 3.75 8.81689C3.75 9.02189 3.58 9.19189 3.375 9.19189Z" fill="var(--fill-0, #F7931E)"/>
<path id="Vector_4" d="M1.875 5.19189H0.375C0.17 5.19189 0 5.02189 0 4.81689C0 4.61189 0.17 4.44189 0.375 4.44189H1.875C2.08 4.44189 2.25 4.61189 2.25 4.81689C2.25 5.02189 2.08 5.19189 1.875 5.19189Z" fill="var(--fill-0, #F7931E)"/>
</g>
</svg>
