<svg preserveAspectRatio="none" width="100%" height="100%" overflow="visible" style="display: block;" viewBox="0 0 9.77814 9.88088" fill="none" xmlns="http://www.w3.org/2000/svg">
<g id="Group">
<path id="Vector" d="M7.59434 1.07002L7.55934 2.96502C7.55434 3.22502 7.71934 3.57002 7.92934 3.72502L9.16934 4.665C9.96434 5.265 9.83434 6 8.88434 6.3L7.26934 6.805C6.99934 6.89 6.71434 7.185 6.64434 7.46L6.25934 8.93C5.95434 10.09 5.19434 10.205 4.56434 9.185L3.68435 7.76C3.52435 7.5 3.14435 7.305 2.84435 7.32L1.17435 7.405C-0.0206461 7.465 -0.360646 6.775 0.419354 5.865L1.40935 4.715C1.59435 4.5 1.67935 4.1 1.59435 3.83002L1.08435 2.21002C0.789354 1.26002 1.31935 0.735022 2.26435 1.04502L3.73935 1.53002C3.98934 1.61002 4.36434 1.55502 4.57434 1.40002L6.11434 0.290022C6.94934 -0.304978 7.61434 0.0450219 7.59434 1.07002Z" fill="var(--fill-0, #F7931E)"/>
<path id="Vector_2" d="M9.66939 9.2351L8.15439 7.7201C8.00939 7.5751 7.76939 7.5751 7.62439 7.7201C7.47939 7.8651 7.47939 8.1051 7.62439 8.2501L9.13939 9.7651C9.21439 9.8401 9.30939 9.8751 9.40439 9.8751C9.49939 9.8751 9.59439 9.8401 9.66939 9.7651C9.81439 9.6201 9.81439 9.3801 9.66939 9.2351Z" fill="var(--fill-0, #F7931E)"/>
</g>
</svg>
