<svg width="40" height="40" viewBox="0 0 40 40" fill="none" xmlns="http://www.w3.org/2000/svg">
<g clip-path="url(#clip0_820_5745)">
<mask id="mask0_820_5745" style="mask-type:luminance" maskUnits="userSpaceOnUse" x="0" y="0" width="40" height="40">
<path d="M40 0H0V40H40V0Z" fill="white"/>
</mask>
<g mask="url(#mask0_820_5745)">
<path d="M35.0281 13.3196C35.6912 14.2639 34.9008 15.4166 33.7469 15.4166H4.99992C4.07945 15.4166 3.33325 14.6704 3.33325 13.75V10.7C3.33325 6.63331 6.63325 3.33331 10.6999 3.33331H14.5666C17.2833 3.33331 18.1333 4.21665 19.2166 5.66665L21.5499 8.76665C22.0666 9.44998 22.1333 9.53331 23.0999 9.53331H27.7499C30.7576 9.53331 33.4193 11.0285 35.0281 13.3196Z" fill="#CCCCCC"/>
<path d="M36.6389 19.5776C36.6358 18.6595 35.8904 17.9166 34.9723 17.9166L4.99989 17.9171C4.07944 17.9171 3.33325 18.6633 3.33325 19.5838V27.7505C3.33325 32.6671 7.33325 36.6671 12.2499 36.6671H27.7499C32.6666 36.6671 36.6666 32.6671 36.6666 27.7505L36.6389 19.5776ZM23.8999 30.4671C23.6499 30.7005 23.3333 30.8338 23.0166 30.8338C22.6999 30.8338 22.3666 30.7005 22.1333 30.4671L20.0666 28.4005L17.9333 30.5338C17.6999 30.7671 17.3666 30.9005 17.0499 30.9005C16.7333 30.9005 16.4166 30.7671 16.1666 30.5338C15.6833 30.0505 15.6833 29.2505 16.1666 28.7671L18.2999 26.6338L16.2333 24.5671C15.7499 24.0838 15.7499 23.2838 16.2333 22.8005C16.7333 22.3171 17.5166 22.3171 17.9999 22.8005L20.0666 24.8671L22.0666 22.8671C22.5499 22.3838 23.3333 22.3838 23.8333 22.8671C24.3166 23.3671 24.3166 24.1505 23.8333 24.6338L21.8333 26.6338L23.8999 28.7005C24.3833 29.1838 24.3833 29.9838 23.8999 30.4671Z" fill="#CCCCCC"/>
</g>
</g>
<defs>
<clipPath id="clip0_820_5745">
<rect width="40" height="40" fill="white"/>
</clipPath>
</defs>
</svg>
