<svg width="24" height="24" viewBox="0 0 24 24" fill="none" xmlns="http://www.w3.org/2000/svg">
<g clip-path="url(#clip0_873_3328)">
<mask id="mask0_873_3328" style="mask-type:luminance" maskUnits="userSpaceOnUse" x="0" y="0" width="24" height="24">
<path d="M24 0H0V24H24V0Z" fill="white"/>
</mask>
<g mask="url(#mask0_873_3328)">
<path d="M22.0197 16.8203L18.8897 9.50027C18.3197 8.16027 17.4697 7.40027 16.4997 7.35027C15.5397 7.30027 14.6097 7.97027 13.8997 9.25027L11.9997 12.6603C11.5997 13.3803 11.0297 13.8103 10.4097 13.8603C9.77965 13.9203 9.14965 13.5903 8.63965 12.9403L8.41965 12.6603C7.70965 11.7703 6.82965 11.3403 5.92965 11.4303C5.02965 11.5203 4.25965 12.1403 3.74965 13.1503L2.01965 16.6003C1.39965 17.8503 1.45965 19.3003 2.18965 20.4803C2.91965 21.6603 4.18965 22.3703 5.57965 22.3703H18.3397C19.6797 22.3703 20.9297 21.7003 21.6697 20.5803C22.4297 19.4603 22.5497 18.0503 22.0197 16.8203Z" fill="#808080"/>
<path d="M6.96984 8.38012C8.83656 8.38012 10.3499 6.86684 10.3499 5.00012C10.3499 3.13339 8.83656 1.62012 6.96984 1.62012C5.10312 1.62012 3.58984 3.13339 3.58984 5.00012C3.58984 6.86684 5.10312 8.38012 6.96984 8.38012Z" fill="#808080"/>
</g>
</g>
<defs>
<clipPath id="clip0_873_3328">
<rect width="24" height="24" fill="white"/>
</clipPath>
</defs>
</svg>
