<svg preserveAspectRatio="none" width="100%" height="100%" overflow="visible" style="display: block;" viewBox="0 0 10.0002 10" fill="none" xmlns="http://www.w3.org/2000/svg">
<g id="Group">
<path id="Vector" d="M10.0002 1V1.97C10.0002 2.11 9.8902 2.22 9.7502 2.22H5.8052C5.6652 2.22 5.5552 2.11 5.5552 1.97V1C5.5552 0.45 6.0052 0 6.5552 0H9.0002C9.5502 0 10.0002 0.45 10.0002 1Z" fill="var(--fill-0, #F7931E)"/>
<path id="Vector_2" d="M10.0002 3.25V7.78C10.0002 9 9.00025 10 7.78025 10H2.38024C1.52024 10 0.690239 9.56 0.275239 8.805C-0.269761 7.82 0.0652394 6.82 0.665239 6.22C1.05524 5.835 1.61024 5.555 2.22024 5.555H4.55525C5.10525 5.555 5.55525 5.105 5.55525 4.555V3.25C5.55525 3.11 5.66525 3 5.80525 3H9.75025C9.89025 3 10.0002 3.11 10.0002 3.25Z" fill="var(--fill-0, #F7931E)"/>
</g>
</svg>
