<svg preserveAspectRatio="none" width="100%" height="100%" overflow="visible" style="display: block;" viewBox="0 0 14.6672 14.8213" fill="none" xmlns="http://www.w3.org/2000/svg">
<g id="Group">
<path id="Vector" d="M11.3915 1.60503L11.339 4.44753C11.3315 4.83753 11.579 5.35503 11.894 5.58753L13.754 6.9975C14.9465 7.8975 14.7515 9 13.3265 9.45L10.904 10.2075C10.499 10.335 10.0715 10.7775 9.96651 11.19L9.38901 13.395C8.93151 15.135 7.79151 15.3075 6.84651 13.7775L5.52653 11.64C5.28653 11.25 4.71653 10.9575 4.26653 10.98L1.76153 11.1075C-0.0309691 11.1975 -0.540969 10.1625 0.629031 8.7975L2.11403 7.0725C2.39153 6.75 2.51903 6.15 2.39153 5.74503L1.62653 3.31503C1.18403 1.89003 1.97903 1.10253 3.39653 1.56753L5.60903 2.29503C5.98401 2.41503 6.54651 2.33253 6.86151 2.10003L9.17151 0.435033C10.424 -0.457467 11.4215 0.0675329 11.3915 1.60503Z" fill="var(--fill-0, #F7931E)"/>
<path id="Vector_2" d="M14.5041 13.8527L12.2316 11.5802C12.0141 11.3627 11.6541 11.3627 11.4366 11.5802C11.2191 11.7977 11.2191 12.1577 11.4366 12.3752L13.7091 14.6477C13.8216 14.7602 13.9641 14.8127 14.1066 14.8127C14.2491 14.8127 14.3916 14.7602 14.5041 14.6477C14.7216 14.4302 14.7216 14.0702 14.5041 13.8527Z" fill="var(--fill-0, #F7931E)"/>
</g>
</svg>
