<svg preserveAspectRatio="none" width="100%" height="100%" overflow="visible" style="display: block;" viewBox="0 0 16.1566 14.4514" fill="none" xmlns="http://www.w3.org/2000/svg">
<g id="Group">
<path id="Vector" d="M6.42745 8.18572H8.74492V13.5857C8.74492 14.3807 9.73493 14.7557 10.2599 14.1557L15.9374 7.70572C16.4324 7.14322 16.0349 6.26572 15.2849 6.26572H12.9674V0.865685C12.9674 0.0706851 11.9774 -0.304315 11.4524 0.295685L5.77495 6.74572C5.28745 7.30822 5.68495 8.18572 6.42745 8.18572Z" fill="var(--fill-0, #F7931E)"/>
<path id="Vector_2" d="M5.8125 1.78784H0.5625C0.255 1.78784 0 1.53284 0 1.22534C0 0.91784 0.255 0.66284 0.5625 0.66284H5.8125C6.12 0.66284 6.375 0.91784 6.375 1.22534C6.375 1.53284 6.12 1.78784 5.8125 1.78784Z" fill="var(--fill-0, #F7931E)"/>
<path id="Vector_3" d="M5.0625 13.7878H0.5625C0.255 13.7878 0 13.5328 0 13.2253C0 12.9178 0.255 12.6628 0.5625 12.6628H5.0625C5.37 12.6628 5.625 12.9178 5.625 13.2253C5.625 13.5328 5.37 13.7878 5.0625 13.7878Z" fill="var(--fill-0, #F7931E)"/>
<path id="Vector_4" d="M2.8125 7.78784H0.5625C0.255 7.78784 0 7.53284 0 7.22534C0 6.91784 0.255 6.66284 0.5625 6.66284H2.8125C3.12 6.66284 3.375 6.91784 3.375 7.22534C3.375 7.53284 3.12 7.78784 2.8125 7.78784Z" fill="var(--fill-0, #F7931E)"/>
</g>
</svg>
