<svg preserveAspectRatio="none" width="100%" height="100%" overflow="visible" style="display: block;" viewBox="0 0 15.562 11.9193" fill="none" xmlns="http://www.w3.org/2000/svg">
<g id="Group">
<path id="Vector" d="M10.6049 0.861565L11.6624 2.97656C11.8049 3.26906 12.1874 3.54656 12.5099 3.60656L14.4224 3.92156C15.6449 4.12406 15.9299 5.00906 15.0524 5.89406L13.5599 7.38656C13.3124 7.63406 13.1699 8.12156 13.2524 8.47406L13.6799 10.3191C14.0174 11.7741 13.2374 12.3441 11.9549 11.5791L10.1624 10.5141C9.83992 10.3191 9.29992 10.3191 8.97742 10.5141L7.18492 11.5791C5.90245 12.3366 5.12245 11.7741 5.45995 10.3191L5.88746 8.47406C5.95496 8.11406 5.81245 7.62656 5.56495 7.37906L4.07246 5.88656C3.19496 5.00906 3.47995 4.12406 4.70245 3.91406L6.61492 3.59906C6.93742 3.54656 7.31992 3.26156 7.46242 2.96906L8.51992 0.854065C9.09742 -0.285935 10.0274 -0.285935 10.6049 0.861565Z" fill="var(--fill-0, #F7931E)"/>
<path id="Vector_2" d="M5.0625 1.26709H0.5625C0.255 1.26709 0 1.01209 0 0.70459C0 0.39709 0.255 0.14209 0.5625 0.14209H5.0625C5.37 0.14209 5.625 0.39709 5.625 0.70459C5.625 1.01209 5.37 1.26709 5.0625 1.26709Z" fill="var(--fill-0, #F7931E)"/>
<path id="Vector_3" d="M2.8125 11.7671H0.5625C0.255 11.7671 0 11.5121 0 11.2046C0 10.8971 0.255 10.6421 0.5625 10.6421H2.8125C3.12 10.6421 3.375 10.8971 3.375 11.2046C3.375 11.5121 3.12 11.7671 2.8125 11.7671Z" fill="var(--fill-0, #F7931E)"/>
<path id="Vector_4" d="M1.3125 6.51709H0.5625C0.255 6.51709 0 6.26209 0 5.95459C0 5.64709 0.255 5.39209 0.5625 5.39209H1.3125C1.62 5.39209 1.875 5.64709 1.875 5.95459C1.875 6.26209 1.62 6.51709 1.3125 6.51709Z" fill="var(--fill-0, #F7931E)"/>
</g>
</svg>
