<svg preserveAspectRatio="none" width="100%" height="100%" overflow="visible" style="display: block;" viewBox="0 0 17.9167 17.9167" fill="none" xmlns="http://www.w3.org/2000/svg">
<g id="Group">
<path id="Vector" d="M8.95833 0C9.3035 0 9.58333 0.279825 9.58333 0.625V6.62353L12.5838 1.4209C12.7563 1.12212 13.1386 1.01983 13.4375 1.19222C13.7362 1.36477 13.8386 1.74702 13.6662 2.0459L10.6616 7.25342L15.8708 4.25049C16.1697 4.07817 16.5519 4.18045 16.7244 4.47917C16.8968 4.77809 16.7946 5.16033 16.4958 5.33284L11.2915 8.33333H17.2917C17.6368 8.33333 17.9167 8.61317 17.9167 8.95833C17.9167 9.3035 17.6368 9.58333 17.2917 9.58333H11.2874L16.4877 12.5838C16.7864 12.7564 16.8888 13.1386 16.7163 13.4375C16.5438 13.7363 16.1616 13.8387 15.8627 13.6662L10.6689 10.6689L13.6662 15.8627C13.8386 16.1616 13.7363 16.5438 13.4375 16.7163C13.1386 16.8888 12.7564 16.7864 12.5838 16.4877L9.58333 11.2874V17.2917C9.58333 17.6368 9.3035 17.9167 8.95833 17.9167C8.61317 17.9167 8.33333 17.6368 8.33333 17.2917V11.2923L5.33284 16.4958C5.16037 16.7946 4.7781 16.8967 4.47917 16.7244C4.18042 16.5519 4.07812 16.1697 4.25049 15.8708L7.25342 10.6624L2.0459 13.6662C1.74699 13.8386 1.36476 13.7362 1.19222 13.4375C1.01983 13.1386 1.12212 12.7563 1.4209 12.5838L6.62273 9.58333H0.625C0.279825 9.58333 0 9.3035 0 8.95833C0 8.61317 0.279825 8.33333 0.625 8.33333H6.62028L1.4209 5.33284C1.12205 5.16028 1.01973 4.77808 1.19222 4.47917C1.36478 4.18033 1.74698 4.07801 2.0459 4.25049L7.25748 7.25748L4.25049 2.0459C4.07801 1.74698 4.18033 1.36479 4.47917 1.19222C4.77808 1.01973 5.16028 1.12205 5.33284 1.4209L8.33333 6.62028V0.625C8.33333 0.279825 8.61317 0 8.95833 0Z" fill="var(--fill-0, #F7931E)"/>
</g>
</svg>
